<?xml version="1.0" encoding="UTF-8" standalone="no"?>
<!-- Created with Inkscape (http://www.inkscape.org/) -->

<svg
   width="210mm"
   height="297mm"
   viewBox="0 0 210 297"
   version="1.1"
   id="svg135"
   inkscape:version="1.2.1 (9c6d41e410, 2022-07-14)"
   sodipodi:docname="log.svg"
   xmlns:inkscape="http://www.inkscape.org/namespaces/inkscape"
   xmlns:sodipodi="http://sodipodi.sourceforge.net/DTD/sodipodi-0.dtd"
   xmlns="http://www.w3.org/2000/svg"
   xmlns:svg="http://www.w3.org/2000/svg">
  <sodipodi:namedview
     id="namedview137"
     pagecolor="#ffffff"
     bordercolor="#666666"
     borderopacity="1.0"
     inkscape:showpageshadow="2"
     inkscape:pageopacity="0.0"
     inkscape:pagecheckerboard="0"
     inkscape:deskcolor="#d1d1d1"
     inkscape:document-units="mm"
     showgrid="false"
     inkscape:zoom="0.84096521"
     inkscape:cx="113.55999"
     inkscape:cy="552.93607"
     inkscape:window-width="1920"
     inkscape:window-height="1017"
     inkscape:window-x="1912"
     inkscape:window-y="-8"
     inkscape:window-maximized="1"
     inkscape:current-layer="layer1" />
  <defs
     id="defs132" />
  <g
     inkscape:label="Layer 1"
     inkscape:groupmode="layer"
     id="layer1">
    <rect
       style="fill:#ffffff;fill-opacity:1;stroke:none;stroke-width:0.799999;stroke-linejoin:miter;stroke-dasharray:none;stroke-opacity:1;stop-color:#000000"
       id="rect3506"
       width="108.22881"
       height="80.542366"
       x="46.563557"
       y="84.003181"
       inkscape:export-filename="rect3506.png"
       inkscape:export-xdpi="192"
       inkscape:export-ydpi="192" />
    <g
       id="g3790"
       transform="translate(3.7292751,4.4212991)">
      <path
         style="color:#000000;fill:#bf6f5d"
         d="m -74.109375,46.771484 -7.898437,16.199219 -17.978516,-1.259766 12.966797,12.515625 -6.753906,16.708985 15.910156,-8.462891 13.804687,11.585938 -0.792968,-4.488282 -2.339844,-13.259765 15.285156,-9.546875 -17.847656,-2.50586 z m -1.015625,9.646485 2.695313,10.8125 11.035156,1.548828 -9.451172,5.904297 1.935547,10.974609 -8.535156,-7.164062 -9.837891,5.234375 4.175781,-10.333985 -8.019531,-7.740234 11.119141,0.779297 z"
         id="path3335"
         transform="matrix(0.24133494,0,0,0.24119554,126.36275,108.37806)" />
      <g
         id="g1178"
         transform="matrix(0.54639223,0.57431587,-0.5738222,0.54842686,131.47696,17.617491)"
         style="stroke:#bf6f5d;stroke-width:1.26067;stroke-opacity:1">
        <path
           style="color:#000000;fill:#bf6f5d;stroke:none;stroke-linecap:square"
           d="m 63.00931,104.26614 -1.544175,0.0902 0.0077,1.64616 c -0.810517,3.41334 -3.038322,5.98202 -5.209174,8.06198 -2.595851,2.44682 -8.115531,4.56254 -11.548692,7.18282 -3.433161,2.62028 -6.33174,6.05597 -6.150391,11.14062 0.181658,5.0933 4.831856,8.4807 8.306505,11.14922 3.474649,2.66852 7.34488,4.72383 9.34375,6.86914 4.236483,4.54685 5.343746,9.1625 5.343746,9.1625 l 0.133448,0.75854 1.518493,-0.26689 -0.134852,-0.75855 c 0,0 -0.654848,-5.37916 -5.292476,-10.35654 -2.438184,-2.6168 -6.3372,-4.5959 -9.607422,-7.10742 -3.270222,-2.51152 -5.828697,-5.36184 -5.980469,-9.61719 -0.152079,-4.26398 2.110209,-6.91874 5.310547,-9.36132 3.200339,-2.44259 7.274968,-4.45235 10.228516,-7.23633 2.605983,-2.88076 5.95601,-5.53515 5.282646,-9.71075 z"
           id="path369"
           sodipodi:nodetypes="ccccssssccccssssccc" />
        <path
           style="fill:none;fill-opacity:1;stroke:#bf6f5d;stroke-width:2.14314;stroke-linecap:butt;stroke-linejoin:miter;stroke-dasharray:none;stroke-opacity:1"
           d="M 41.057732,131.93707 H 62.60911"
           id="path597" />
        <path
           style="fill:none;fill-opacity:1;stroke:#bf6f5d;stroke-width:2.14314;stroke-linecap:butt;stroke-linejoin:miter;stroke-dasharray:none;stroke-opacity:1"
           d="M 42.158898,127.29736 H 61.665254"
           id="path599" />
        <path
           style="fill:none;fill-opacity:1;stroke:#bf6f5d;stroke-width:2.14314;stroke-linecap:butt;stroke-linejoin:miter;stroke-dasharray:none;stroke-opacity:1"
           d="m 45.619704,123.20999 12.584745,0.33141"
           id="path601" />
        <path
           style="fill:none;fill-opacity:1;stroke:#bf6f5d;stroke-width:2.14314;stroke-linecap:butt;stroke-linejoin:miter;stroke-dasharray:none;stroke-opacity:1"
           d="m 48.765888,120.77967 6.764303,0.44188"
           id="path603" />
        <path
           style="fill:none;fill-opacity:1;stroke:#bf6f5d;stroke-width:2.14314;stroke-linecap:butt;stroke-linejoin:miter;stroke-dasharray:none;stroke-opacity:1"
           d="m 42.001588,136.4663 19.506355,-0.55234"
           id="path605" />
        <path
           style="fill:none;fill-opacity:1;stroke:#bf6f5d;stroke-width:2.14314;stroke-linecap:butt;stroke-linejoin:miter;stroke-dasharray:none;stroke-opacity:1"
           d="m 44.518537,139.78038 15.259005,-1.10469"
           id="path607" />
        <path
           style="fill:none;fill-opacity:1;stroke:#bf6f5d;stroke-width:2.14314;stroke-linecap:butt;stroke-linejoin:miter;stroke-dasharray:none;stroke-opacity:1"
           d="m 47.350105,142.65258 9.595869,-1.21516"
           id="path609" />
        <path
           style="fill:none;fill-opacity:1;stroke:#bf6f5d;stroke-width:2.14314;stroke-linecap:butt;stroke-linejoin:miter;stroke-dasharray:none;stroke-opacity:1"
           d="m 50.181673,144.53056 4.247351,-0.77329"
           id="path611" />
        <path
           style="color:#000000;fill:#c02929;fill-opacity:1;stroke:none;stroke-linecap:square"
           d="m 40.402814,104.26719 -0.04496,0.76999 c -0.11806,4.28992 2.637572,8.01707 5.31793,10.58587 2.953548,2.78398 7.028177,4.79374 10.228516,7.23633 3.200339,2.44258 5.462626,5.09734 5.310547,9.36132 -0.151771,4.25535 -2.710247,7.10567 -5.980469,9.61719 -3.270222,2.51152 -7.169237,4.49062 -9.607422,7.10742 -4.637627,4.97738 -5.288515,10.36055 -5.288515,10.36055 l -0.132375,0.75244 1.506279,0.26475 0.132374,-0.75244 c 0,0 1.114113,-4.61751 5.350596,-9.16436 1.998871,-2.14531 5.869101,-4.20062 9.34375,-6.86914 3.47465,-2.66852 7.879467,-5.327 8.061125,-10.4203 0.181349,-5.08465 -3.961948,-9.34028 -7.395109,-11.96056 -3.433161,-2.62028 -7.464696,-4.64498 -10.060547,-7.0918 -2.650623,-2.54809 -4.388167,-5.44538 -5.248106,-8.93735 l 0.04637,-0.76998 z"
           id="path369-2"
           sodipodi:nodetypes="cccssssccccsssscccc" />
      </g>
      <path
         d="m 83.599678,141.11071 q -0.876607,0 -1.621194,-0.30042 -0.739307,-0.30043 -1.272664,-0.89514 -0.533357,-0.5947 -0.829079,-1.48371 -0.290442,-0.889 -0.290442,-2.05389 0,-1.0852 0.27988,-1.96807 0.279881,-0.88286 0.813238,-1.51436 0.512234,-0.60698 1.267382,-0.93805 0.76043,-0.33107 1.65816,-0.33107 0.496391,0 0.892448,0.0675 0.401338,0.0613 0.739307,0.16553 0.353811,0.11649 0.638972,0.26364 0.290442,0.14101 0.506953,0.26363 v 2.21331 h -0.232354 q -0.147861,-0.14714 -0.374933,-0.34948 -0.221792,-0.20232 -0.506953,-0.39851 -0.290442,-0.19619 -0.628411,-0.33108 -0.337969,-0.13488 -0.723464,-0.13488 -0.427742,0 -0.813238,0.15941 -0.385495,0.15327 -0.712902,0.515 -0.311566,0.34947 -0.506954,0.92579 -0.190108,0.57632 -0.190108,1.39788 0,0.85834 0.205951,1.43466 0.21123,0.57632 0.528076,0.90739 0.322126,0.33721 0.718183,0.48436 0.396057,0.14101 0.781553,0.14101 0.369654,0 0.728745,-0.12875 0.364373,-0.12876 0.670657,-0.34947 0.258757,-0.1778 0.480549,-0.38013 0.221793,-0.20232 0.364373,-0.34946 h 0.21123 v 2.18264 q -0.295722,0.15328 -0.565041,0.28816 -0.269319,0.13489 -0.565042,0.23299 -0.385495,0.12875 -0.723465,0.19619 -0.337968,0.0674 -0.929413,0.0674 z"
         style="font-weight:bold;font-size:11.6532px;line-height:1.25;-inkscape-font-specification:'sans-serif Bold';fill:#bf6f5d;fill-opacity:1;stroke-width:0.264583"
         id="path1892" />
      <path
         d="m 93.722897,140.93291 h -1.911634 v -3.415 q 0,-0.4169 -0.03696,-0.82768 -0.03696,-0.41691 -0.126739,-0.6131 -0.105614,-0.22686 -0.311564,-0.33108 -0.200669,-0.1042 -0.565042,-0.1042 -0.258757,0 -0.528076,0.0981 -0.264038,0.0981 -0.575603,0.3127 v 4.8803 H 87.7662 v -9.53989 h 1.901074 v 3.41498 q 0.506953,-0.45983 0.97166,-0.70507 0.469988,-0.24524 1.040311,-0.24524 0.961098,0 1.499738,0.64989 0.543914,0.64989 0.543914,1.94354 z"
         style="font-weight:bold;font-size:11.6532px;line-height:1.25;-inkscape-font-specification:'sans-serif Bold';fill:#bf6f5d;fill-opacity:1;stroke-width:0.264583"
         id="path1894" />
      <path
         id="path1896"
         style="font-weight:bold;font-size:11.6532px;line-height:1.25;-inkscape-font-specification:'sans-serif Bold';fill:#c02929;fill-opacity:1;stroke-width:0.264583"
         d="m 95.470658,134.45174 v 0.56379 h 1.901176 v -0.56379 z m 2.610177,0 c -0.202458,0.14028 -0.423931,0.3302 -0.662492,0.56379 h 2.351278 v -0.56379 z m -2.610177,1.03198 v 0.56379 h 4.298963 v -0.56379 z m 0,1.03198 v 0.56379 h 1.901176 v -0.56379 z m 0,1.03198 v 0.56379 h 1.901176 v -0.56379 z m 0,1.03197 v 0.56379 h 1.901176 v -0.56379 z m 0,1.03198 v 0.56379 h 1.901176 v -0.56379 z m 0,1.03198 v 0.28939 h 1.901176 v -0.28939 z" />
      <path
         id="path1898"
         style="font-weight:bold;font-size:11.6532px;line-height:1.25;-inkscape-font-specification:'sans-serif Bold';fill:#c02929;fill-opacity:1;stroke-width:0.264583"
         d="m 103.78281,133.83317 c -0.40479,0 -0.77584,0.0505 -1.11414,0.15038 h 2.19986 c -0.3201,-0.0997 -0.68157,-0.15038 -1.08572,-0.15038 z m -2.05362,0.61857 c -0.14917,0.11208 -0.28921,0.23826 -0.41806,0.38086 -0.0533,0.059 -0.10338,0.1202 -0.15193,0.18293 h 5.03794 c -0.0719,-0.11803 -0.15107,-0.22842 -0.23875,-0.33021 -0.0722,-0.0845 -0.15027,-0.16168 -0.23306,-0.23358 z m -0.87023,1.03198 c -0.0927,0.1765 -0.17039,0.36436 -0.23409,0.56379 h 1.80247 c 0.067,-0.2099 0.16576,-0.37898 0.29921,-0.50385 0.0228,-0.0213 0.0468,-0.0407 0.0708,-0.0599 z m 3.57032,0 c 0.0253,0.0245 0.0495,0.0507 0.0718,0.0786 0.10189,0.12724 0.17643,0.28973 0.22583,0.48524 h 1.86035 c -0.0412,-0.20126 -0.096,-0.38873 -0.16278,-0.56379 z m -3.92379,1.03198 c -0.0349,0.17996 -0.06,0.368 -0.0749,0.56379 h 6.25492 c -10e-4,-0.19715 -0.0122,-0.38404 -0.0305,-0.56379 h -1.86242 c 10e-4,0.0296 0.003,0.0583 0.004,0.0889 h -2.466 c 0.002,-0.0307 0.005,-0.0593 0.008,-0.0889 z m -0.0915,1.03198 c 5.6e-4,0.19558 0.0104,0.38356 0.0294,0.56379 h 1.91306 c -0.009,-0.069 -0.0168,-0.13974 -0.0207,-0.21343 h 4.35116 v -0.35036 z m 0.10387,1.03197 c 0.0427,0.19897 0.0984,0.3868 0.16743,0.56379 h 2.18746 c -0.003,-0.002 -0.006,-0.004 -0.009,-0.007 -0.17016,-0.1503 -0.29853,-0.33685 -0.38706,-0.55708 z m 5.84718,0.19534 c -0.14604,0.12854 -0.33081,0.2509 -0.54777,0.36845 h 0.75913 v -0.36845 z m -5.45083,0.83664 c 0.12415,0.2071 0.27089,0.39521 0.44132,0.56379 h 5.22087 v -0.56379 z m 1.06764,1.03198 c 0.56519,0.31484 1.27062,0.47336 2.1177,0.47336 0.46118,0 0.88172,-0.045 1.26194,-0.13488 0.31422,-0.0743 0.64636,-0.18878 0.99425,-0.33848 z" />
      <path
         id="path1900"
         style="font-weight:bold;font-size:11.6532px;line-height:1.25;-inkscape-font-specification:'sans-serif Bold';fill:#c02929;fill-opacity:1;stroke-width:0.264583"
         d="m 111.89395,131.39301 v 0.52659 h 1.90117 v -0.52659 z m 0,0.99477 v 0.56379 h 1.90117 v -0.56379 z m 0,1.03198 v 0.56379 h 1.90117 v -0.56379 z m -1.57355,0.4377 c -0.23857,0 -0.47716,0.0423 -0.71572,0.12609 h 1.56269 c -0.22185,-0.0838 -0.50377,-0.12609 -0.84697,-0.12609 z m -1.53789,0.59428 c -0.12987,0.11061 -0.24934,0.23535 -0.35812,0.37466 -0.0477,0.0607 -0.0935,0.12378 -0.13746,0.18913 h 5.50819 v -0.56379 z m -0.75965,1.03198 c -0.075,0.15903 -0.142,0.32795 -0.2005,0.50746 -0.006,0.0186 -0.0113,0.0375 -0.017,0.0563 h 2.11408 c 0.007,-0.0105 0.0135,-0.0212 0.0207,-0.0315 0.21123,-0.30741 0.51203,-0.48464 0.90175,-0.53227 z m 3.25665,0 c 0.0616,0.007 0.12567,0.0166 0.19224,0.0295 0.14787,0.0286 0.28842,0.0757 0.4222,0.14107 v 0.39326 h 1.90117 v -0.56379 z m -3.58686,1.03198 c -0.0327,0.17919 -0.0562,0.36722 -0.0703,0.56379 h 1.96474 c 0.0216,-0.20624 0.0593,-0.39398 0.11317,-0.56379 z m 4.2013,0 v 0.56379 h 1.90117 v -0.56379 z m -4.28812,1.03198 c 1.3e-4,0.19523 0.008,0.38285 0.0217,0.56379 h 1.96887 c -0.0198,-0.17049 -0.0301,-0.35873 -0.031,-0.56379 z m 4.28812,0 v 0.56379 h 1.90117 v -0.56379 z m -4.21267,1.03197 c 0.0308,0.19771 0.0711,0.38587 0.12093,0.56379 h 2.18953 c -0.0462,-0.0461 -0.0879,-0.0973 -0.12558,-0.15399 -0.0732,-0.1119 -0.1328,-0.24889 -0.17932,-0.4098 z m 4.21267,0 v 0.45269 c -0.0475,0.0394 -0.0976,0.0763 -0.14987,0.1111 h 2.05104 v -0.56379 z m -3.92948,1.03198 c 0.0827,0.19566 0.17966,0.37664 0.29094,0.54261 0.005,0.007 0.0101,0.014 0.015,0.0212 h 5.52473 v -0.56379 z m 0.71468,1.03198 c 0.36481,0.31952 0.80081,0.47956 1.30845,0.47956 0.37318,0 0.70238,-0.0735 0.98754,-0.22066 0.13239,-0.0683 0.26933,-0.15534 0.41083,-0.2589 z m 3.2148,0 v 0.28939 h 1.90117 v -0.28939 z" />
      <path
         id="path1902"
         style="font-weight:bold;font-size:11.6532px;line-height:1.25;-inkscape-font-specification:'sans-serif Bold';fill:#c02929;fill-opacity:1;stroke-width:0.264583"
         d="m 119.45627,131.39301 v 0.52659 h 1.90066 v -0.52659 z m 0,0.99477 v 0.56379 h 1.90066 v -0.56379 z m 0,1.03198 v 0.56379 h 1.90066 v -0.56379 z m -1.57406,0.4377 c -0.2377,0 -0.47543,0.0429 -0.71313,0.12609 h 1.55752 c -0.22159,-0.0834 -0.50202,-0.12609 -0.84439,-0.12609 z m -1.53634,0.59428 c -0.13009,0.11073 -0.25021,0.23515 -0.35915,0.37466 -0.0475,0.0605 -0.0926,0.12399 -0.13643,0.18913 h 5.50664 v -0.56379 z m -0.76016,1.03198 c -0.0751,0.15912 -0.14248,0.32784 -0.20102,0.50746 -0.006,0.0184 -0.0109,0.0377 -0.0165,0.0563 h 2.1146 c 0.007,-0.0102 0.0127,-0.0215 0.0196,-0.0315 0.21244,-0.30918 0.51598,-0.48587 0.90899,-0.53227 z m 3.25251,0 c 0.0628,0.007 0.12735,0.0163 0.19534,0.0295 0.14786,0.0286 0.28893,0.0757 0.42271,0.14107 v 0.39326 h 1.90066 v -0.56379 z m -3.58376,1.03198 c -0.0327,0.17916 -0.0556,0.36727 -0.0698,0.56379 h 1.96422 c 0.0216,-0.20643 0.0602,-0.39386 0.11421,-0.56379 z m 4.20181,0 v 0.56379 h 1.90066 v -0.56379 z m -4.28811,1.03198 c 1.3e-4,0.19602 0.009,0.38218 0.0233,0.56379 h 1.96835 c -0.0199,-0.1708 -0.0311,-0.35825 -0.032,-0.56379 z m 4.28811,0 v 0.56379 h 1.90066 v -0.56379 z m -4.21111,1.03197 c 0.0308,0.19721 0.0696,0.38627 0.11937,0.56379 h 2.19264 c -0.0468,-0.0465 -0.0906,-0.0966 -0.12868,-0.15399 -0.0732,-0.11183 -0.13282,-0.24901 -0.17932,-0.4098 z m 4.21111,0 v 0.45269 c -0.0479,0.0397 -0.0992,0.0761 -0.15192,0.1111 h 2.05258 v -0.56379 z m -3.92947,1.03198 c 0.0827,0.19563 0.17967,0.37666 0.29094,0.54261 0.005,0.007 0.01,0.014 0.015,0.0212 h 5.52421 v -0.56379 z m 0.7152,1.03198 c 0.36469,0.31916 0.80058,0.47956 1.30793,0.47956 0.37317,0 0.70185,-0.0735 0.98702,-0.22066 0.13197,-0.0681 0.26929,-0.15578 0.41031,-0.2589 z m 3.21427,0 v 0.28939 h 1.90066 v -0.28939 z" />
      <path
         id="path1904"
         style="font-weight:bold;font-size:11.6532px;line-height:1.25;-inkscape-font-specification:'sans-serif Bold';fill:#c02929;fill-opacity:1;stroke-width:0.264583"
         d="m 125.56598,133.85178 c -0.45415,0 -0.90857,0.0428 -1.36271,0.12867 -0.006,0.001 -0.01,0.002 -0.0155,0.003 h 2.70888 c -0.37686,-0.0871 -0.81875,-0.13177 -1.33067,-0.13177 z m -2.33939,0.59996 v 0.56379 h 5.148 c -0.11229,-0.22204 -0.2616,-0.41007 -0.44855,-0.56379 z m 0,1.03198 v 0.37259 h 0.17415 c 0.1549,-0.0695 0.41027,-0.16734 0.76584,-0.29404 0.0814,-0.0299 0.16114,-0.0555 0.2403,-0.0786 z m 2.88044,0 c 0.0909,0.029 0.17311,0.0631 0.24546,0.10284 0.18292,0.0978 0.30232,0.25236 0.36019,0.46095 h 1.90841 c -0.0104,-0.20184 -0.0345,-0.39087 -0.0765,-0.56379 z m -0.49609,1.03198 c -0.16095,0.0197 -0.32059,0.0406 -0.47801,0.0641 -0.52103,0.0777 -0.95743,0.2088 -1.30948,0.39274 -0.0644,0.0333 -0.12541,0.0692 -0.18449,0.10697 h 4.98988 v -0.56379 z m -2.48719,1.03198 c -0.0442,0.0573 -0.0866,0.11627 -0.12454,0.1788 -0.0705,0.11603 -0.12726,0.24459 -0.17208,0.38499 h 2.11253 c 0.0815,-0.0636 0.17634,-0.1172 0.28836,-0.15813 0.15489,-0.0572 0.38185,-0.10641 0.68109,-0.14728 0.29924,-0.045 0.57758,-0.0799 0.83457,-0.10439 v 0.4098 h 1.88516 v -0.56379 z m -0.39377,1.03197 c -0.0135,0.12004 -0.0212,0.24642 -0.0212,0.37931 0,0.063 0.003,0.12376 0.007,0.18448 h 1.96164 c -0.001,-0.004 -0.003,-0.009 -0.004,-0.0129 -0.0211,-0.0899 -0.0315,-0.2068 -0.0315,-0.34985 0,-0.0725 0.007,-0.13811 0.0181,-0.20103 z m 4.0137,0 v 0.55708 c -0.002,0.002 -0.005,0.004 -0.007,0.007 h 1.89239 v -0.56379 z m -3.95583,1.03198 c 0.0525,0.2036 0.13135,0.39143 0.23668,0.56379 h 5.60431 v -0.56379 h -2.79724 c -0.0605,0.009 -0.12121,0.0155 -0.18139,0.0155 -0.12511,0 -0.23196,-0.005 -0.32246,-0.0155 z m 0.62942,1.03198 c 0.35455,0.31521 0.78031,0.47336 1.27744,0.47336 0.2394,0 0.45924,-0.0248 0.65991,-0.0739 0.20068,-0.045 0.39427,-0.11636 0.58085,-0.21446 0.0885,-0.0487 0.18235,-0.11309 0.27853,-0.185 z m 3.32641,0 v 0.28939 h 1.88516 v -0.28939 z" />
      <path
         id="path1906"
         style="font-weight:bold;font-size:11.6532px;line-height:1.25;-inkscape-font-specification:'sans-serif Bold';fill:#c02929;fill-opacity:1;stroke-width:0.264583"
         d="m 130.37654,131.39301 v 0.52659 h 1.90117 v -0.52659 z m 0,0.99477 v 0.56379 h 1.90117 v -0.56379 z m 0,1.03198 v 0.56379 h 1.90117 v -0.56379 z m 0,1.03198 v 0.56379 h 1.90117 v -0.56379 z m 0,1.03198 v 0.56379 h 1.90117 v -0.56379 z m 0,1.03198 v 0.56379 h 1.90117 v -0.56379 z m 0,1.03198 v 0.56379 h 1.90117 v -0.56379 z m 0,1.03197 v 0.56379 h 1.90117 v -0.56379 z m 0,1.03198 v 0.56379 h 1.90117 v -0.56379 z m 0,1.03198 v 0.28939 h 1.90117 v -0.28939 z" />
      <path
         style="fill:none;stroke:#bf6f5d;stroke-width:1;stroke-linecap:butt;stroke-linejoin:miter;stroke-dasharray:none;stroke-opacity:1"
         d="m 115.15042,126.94862 h 17.14672"
         id="path3400" />
      <path
         style="fill:none;stroke:#bf6f5d;stroke-width:0.5;stroke-linecap:butt;stroke-linejoin:miter;stroke-dasharray:none;stroke-opacity:1"
         d="m 123.64512,124.83197 h 8.65202"
         id="path3400-0" />
    </g>
  </g>
</svg>
